<svg width="26" height="26" viewBox="0 0 26 26" fill="none" xmlns="http://www.w3.org/2000/svg">
<path d="M13 19.1579C14.7087 19.1579 16.1622 18.5587 17.3605 17.3605C18.5587 16.1622 19.1579 14.7087 19.1579 13C19.1579 11.2913 18.5587 9.8378 17.3605 8.63952C16.1622 7.44124 14.7087 6.8421 13 6.8421C11.2913 6.8421 9.8378 7.44124 8.63952 8.63952C7.44124 9.8378 6.8421 11.2913 6.8421 13C6.8421 14.7087 7.44124 16.1622 8.63952 17.3605C9.8378 18.5587 11.2913 19.1579 13 19.1579ZM13.0024 26C11.2043 26 9.51417 25.6588 7.93205 24.9764C6.34993 24.294 4.97375 23.3679 3.80352 22.1982C2.6333 21.0284 1.70676 19.6528 1.02392 18.0714C0.341307 16.4899 0 14.8003 0 13.0024C0 11.2043 0.341193 9.51417 1.02358 7.93205C1.70596 6.34993 2.63204 4.97375 3.80181 3.80352C4.97159 2.6333 6.34719 1.70676 7.92863 1.02392C9.51007 0.341307 11.1997 0 12.9976 0C14.7957 0 16.4858 0.341192 18.0679 1.02358C19.6501 1.70596 21.0262 2.63204 22.1965 3.80181C23.3667 4.97159 24.2932 6.34719 24.9761 7.92863C25.6587 9.51007 26 11.1997 26 12.9976C26 14.7957 25.6588 16.4858 24.9764 18.0679C24.294 19.6501 23.3679 21.0262 22.1982 22.1965C21.0284 23.3667 19.6528 24.2932 18.0714 24.9761C16.4899 25.6587 14.8003 26 13.0024 26ZM13 23.9474C16.0561 23.9474 18.6447 22.8868 20.7658 20.7658C22.8868 18.6447 23.9474 16.0561 23.9474 13C23.9474 9.94386 22.8868 7.35526 20.7658 5.23421C18.6447 3.11316 16.0561 2.05263 13 2.05263C9.94386 2.05263 7.35526 3.11316 5.23421 5.23421C3.11316 7.35526 2.05263 9.94386 2.05263 13C2.05263 16.0561 3.11316 18.6447 5.23421 20.7658C7.35526 22.8868 9.94386 23.9474 13 23.9474Z" fill="white"/>
</svg>
