<svg width="32" height="32" viewBox="0 0 32 32" fill="none" xmlns="http://www.w3.org/2000/svg">
<path d="M16.3682 3.33292C16.6406 3.33561 16.8801 3.43883 17.0869 3.64151C17.28 3.84423 17.3808 4.07441 17.3877 4.33096C17.3943 4.58739 17.2935 4.81659 17.0869 5.01944L15.6465 6.4335H16C17.5725 6.4335 19.0458 6.7251 20.4199 7.3085C21.7944 7.89202 22.9934 8.68571 24.0156 9.68839C25.0376 10.6909 25.8466 11.8659 26.4414 13.2138C27.0363 14.5616 27.333 16.0072 27.333 17.5497C27.333 19.0922 27.0362 20.5378 26.4414 21.8857C25.8466 23.2337 25.0378 24.4094 24.0156 25.412C22.9934 26.4147 21.7944 27.2074 20.4199 27.7909C19.0458 28.3744 17.5726 28.6669 16 28.6669C14.4274 28.6669 12.9543 28.3744 11.5801 27.7909C10.2056 27.2074 9.0066 26.4147 7.98438 25.412C6.96224 24.4094 6.15345 23.2337 5.55859 21.8857C4.9638 20.5378 4.66699 19.0922 4.66699 17.5497C4.66706 17.2715 4.76261 17.0381 4.9541 16.8505C5.14539 16.6628 5.38336 16.5692 5.66699 16.5692C5.9504 16.5693 6.18772 16.663 6.37891 16.8505C6.57039 17.0381 6.66692 17.2715 6.66699 17.5497C6.66699 20.1 7.57268 22.2635 9.38379 24.0399C11.1949 25.8164 13.4001 26.705 16 26.705C18.5999 26.705 20.8051 25.8164 22.6162 24.0399C24.4273 22.2635 25.333 20.1 25.333 17.5497C25.3329 14.9995 24.4273 12.8359 22.6162 11.0595C20.8052 9.28326 18.5998 8.39542 16 8.39542H15.6465L17.0615 9.78311C17.2597 9.97776 17.3581 10.206 17.3555 10.4667C17.353 10.7272 17.2544 10.9584 17.0615 11.161C16.8546 11.364 16.6171 11.4697 16.3486 11.4765C16.0804 11.4832 15.8426 11.3845 15.6357 11.1815L12.6387 8.2294C12.3977 7.99323 12.2775 7.71726 12.2773 7.40225C12.2773 7.08684 12.3976 6.81041 12.6387 6.57413L15.6621 3.621C15.8602 3.42688 16.0957 3.33056 16.3682 3.33292ZM14.0205 13.9999C14.0778 13.9999 14.1383 14.0086 14.2012 14.0263C14.2639 14.0438 14.3238 14.071 14.3809 14.1064L19.6875 17.7148C19.7916 17.7906 19.8699 17.8814 19.9219 17.9872C19.9739 18.0931 19.9999 18.2084 20 18.3329C20 18.4576 19.974 18.5736 19.9219 18.6796C19.8699 18.7854 19.7916 18.8762 19.6875 18.9521L14.3809 22.5605C14.3236 22.5958 14.2633 22.623 14.2002 22.6405C14.1373 22.6582 14.0768 22.6669 14.0195 22.6669C13.8362 22.6668 13.676 22.5978 13.5391 22.4608C13.402 22.3237 13.333 22.1483 13.333 21.9345V14.7323C13.333 14.5186 13.4019 14.3431 13.5391 14.206C13.6765 14.0689 13.8372 13.9999 14.0205 13.9999Z" fill="white"/>
</svg>
